<svg width="15" height="15" viewBox="0 0 15 15" fill="none" xmlns="http://www.w3.org/2000/svg">
<path d="M6.5 8.5H1.5C1.21667 8.5 0.979337 8.404 0.788004 8.212C0.59667 8.02 0.50067 7.78267 0.500003 7.5C0.499337 7.21734 0.595337 6.98 0.788004 6.788C0.98067 6.596 1.218 6.5 1.5 6.5H6.5V1.5C6.5 1.21667 6.596 0.979337 6.788 0.788004C6.98 0.59667 7.21734 0.50067 7.5 0.500003C7.78267 0.499337 8.02034 0.595337 8.213 0.788004C8.40567 0.98067 8.50134 1.218 8.5 1.5V6.5H13.5C13.7833 6.5 14.021 6.596 14.213 6.788C14.405 6.98 14.5007 7.21734 14.5 7.5C14.4993 7.78267 14.4033 8.02034 14.212 8.213C14.0207 8.40567 13.7833 8.50134 13.5 8.5H8.5V13.5C8.5 13.7833 8.404 14.021 8.212 14.213C8.02 14.405 7.78267 14.5007 7.5 14.5C7.21734 14.4993 6.98 14.4033 6.788 14.212C6.596 14.0207 6.5 13.7833 6.5 13.5V8.5Z" fill="white"/>
</svg>
