<svg width="37" height="37" viewBox="0 0 37 37" fill="none" xmlns="http://www.w3.org/2000/svg">
<rect width="37" height="37" rx="18.5" fill="#2A2A2A"/>
<path d="M10.042 18.4997V8.83301M26.9587 28.1663V24.5413M10.042 28.1663V23.333M26.9587 19.708V8.83301M18.5003 12.458V8.83301M18.5003 28.1663V17.2913" stroke="#C9C9C9" stroke-linecap="round"/>
<path d="M10.0417 23.3333C11.3764 23.3333 12.4583 22.2514 12.4583 20.9167C12.4583 19.582 11.3764 18.5 10.0417 18.5C8.70698 18.5 7.625 19.582 7.625 20.9167C7.625 22.2514 8.70698 23.3333 10.0417 23.3333Z" stroke="#C9C9C9" stroke-linecap="round"/>
<path d="M18.4997 17.2913C19.8344 17.2913 20.9163 16.2094 20.9163 14.8747C20.9163 13.54 19.8344 12.458 18.4997 12.458C17.165 12.458 16.083 13.54 16.083 14.8747C16.083 16.2094 17.165 17.2913 18.4997 17.2913Z" stroke="#C9C9C9" stroke-linecap="round"/>
<path d="M26.9587 24.5413C28.2933 24.5413 29.3753 23.4594 29.3753 22.1247C29.3753 20.79 28.2933 19.708 26.9587 19.708C25.624 19.708 24.542 20.79 24.542 22.1247C24.542 23.4594 25.624 24.5413 26.9587 24.5413Z" stroke="#C9C9C9" stroke-linecap="round"/>
</svg>
