<svg width="60" height="60" viewBox="0 0 60 60" fill="none" xmlns="http://www.w3.org/2000/svg">
<rect width="60" height="60" rx="30" fill="#2A2A2A"/>
<mask id="path-2-inside-1_147_88" fill="white">
<path d="M42.0333 44.25L32.0583 34.275C31.2667 34.9083 30.3563 35.4097 29.3271 35.7792C28.2979 36.1486 27.2028 36.3333 26.0417 36.3333C23.1653 36.3333 20.7312 35.3369 18.7393 33.344C16.7475 31.3511 15.7511 28.917 15.75 26.0417C15.7489 23.1663 16.7454 20.7322 18.7393 18.7393C20.7333 16.7464 23.1674 15.75 26.0417 15.75C28.9159 15.75 31.3506 16.7464 33.3456 18.7393C35.3406 20.7322 36.3365 23.1663 36.3333 26.0417C36.3333 27.2028 36.1486 28.2979 35.7792 29.3271C35.4097 30.3562 34.9083 31.2667 34.275 32.0583L44.25 42.0333L42.0333 44.25ZM26.0417 33.1667C28.0208 33.1667 29.7034 32.4742 31.0893 31.0893C32.4753 29.7044 33.1677 28.0219 33.1667 26.0417C33.1656 24.0614 32.4732 22.3794 31.0893 20.9956C29.7055 19.6118 28.0229 18.9188 26.0417 18.9167C24.0604 18.9146 22.3784 19.6075 20.9956 20.9956C19.6128 22.3836 18.9198 24.0657 18.9167 26.0417C18.9135 28.0177 19.6065 29.7002 20.9956 31.0893C22.3847 32.4784 24.0667 33.1709 26.0417 33.1667Z"/>
</mask>
<path d="M42.0333 44.25L32.0583 34.275C31.2667 34.9083 30.3563 35.4097 29.3271 35.7792C28.2979 36.1486 27.2028 36.3333 26.0417 36.3333C23.1653 36.3333 20.7312 35.3369 18.7393 33.344C16.7475 31.3511 15.7511 28.917 15.75 26.0417C15.7489 23.1663 16.7454 20.7322 18.7393 18.7393C20.7333 16.7464 23.1674 15.75 26.0417 15.75C28.9159 15.75 31.3506 16.7464 33.3456 18.7393C35.3406 20.7322 36.3365 23.1663 36.3333 26.0417C36.3333 27.2028 36.1486 28.2979 35.7792 29.3271C35.4097 30.3562 34.9083 31.2667 34.275 32.0583L44.25 42.0333L42.0333 44.25ZM26.0417 33.1667C28.0208 33.1667 29.7034 32.4742 31.0893 31.0893C32.4753 29.7044 33.1677 28.0219 33.1667 26.0417C33.1656 24.0614 32.4732 22.3794 31.0893 20.9956C29.7055 19.6118 28.0229 18.9188 26.0417 18.9167C24.0604 18.9146 22.3784 19.6075 20.9956 20.9956C19.6128 22.3836 18.9198 24.0657 18.9167 26.0417C18.9135 28.0177 19.6065 29.7002 20.9956 31.0893C22.3847 32.4784 24.0667 33.1709 26.0417 33.1667Z" fill="#757575"/>
<path d="M42.0333 44.25L38.4978 47.7855L42.0333 51.3211L45.5689 47.7855L42.0333 44.25ZM32.0583 34.275L35.5939 30.7395L32.4294 27.575L28.9349 30.3707L32.0583 34.275ZM26.0417 36.3333V41.3333V36.3333ZM36.3333 26.0417L31.3333 26.0362V26.0417H36.3333ZM34.275 32.0583L30.3707 28.9349L27.575 32.4294L30.7395 35.5939L34.275 32.0583ZM44.25 42.0333L47.7855 45.5689L51.3211 42.0333L47.7855 38.4978L44.25 42.0333ZM26.0417 33.1667V28.1667L26.031 28.1667L26.0417 33.1667ZM42.0333 44.25L45.5689 40.7145L35.5939 30.7395L32.0583 34.275L28.5228 37.8105L38.4978 47.7855L42.0333 44.25ZM32.0583 34.275L28.9349 30.3707C28.6064 30.6335 28.1887 30.8754 27.6378 31.0732L29.3271 35.7792L31.0164 40.4851C32.5238 39.944 33.927 39.1832 35.1818 38.1793L32.0583 34.275ZM29.3271 35.7792L27.6378 31.0732C27.1833 31.2363 26.6628 31.3333 26.0417 31.3333V36.3333V41.3333C27.7428 41.3333 29.4125 41.0609 31.0164 40.4851L29.3271 35.7792ZM26.0417 36.3333V31.3333C24.4608 31.3333 23.3082 30.8423 22.2758 29.8094L18.7393 33.344L15.2029 36.8786C18.1542 39.8315 21.8698 41.3333 26.0417 41.3333V36.3333ZM18.7393 33.344L22.2758 29.8094C21.2419 28.775 20.7506 27.6206 20.75 26.0398L15.75 26.0417L10.75 26.0435C10.7515 30.2134 12.2531 33.9273 15.2029 36.8786L18.7393 33.344ZM15.75 26.0417L20.75 26.0398C20.7494 24.462 21.2395 23.3097 22.2739 22.2758L18.7393 18.7393L15.2047 15.2029C12.2513 18.1547 10.7485 21.8707 10.75 26.0435L15.75 26.0417ZM18.7393 18.7393L22.2739 22.2758C23.3099 21.2404 24.4639 20.75 26.0417 20.75V15.75V10.75C21.8709 10.75 18.1567 12.2525 15.2047 15.2029L18.7393 18.7393ZM26.0417 15.75V20.75C27.6195 20.75 28.7745 21.2405 29.8119 22.2767L33.3456 18.7393L36.8792 15.2019C33.9266 12.2524 30.2124 10.75 26.0417 10.75V15.75ZM33.3456 18.7393L29.8119 22.2767C30.8462 23.3099 31.3351 24.4604 31.3333 26.0362L36.3333 26.0417L41.3333 26.0472C41.3379 21.8723 39.835 18.1545 36.8792 15.2019L33.3456 18.7393ZM36.3333 26.0417H31.3333C31.3333 26.6628 31.2363 27.1833 31.0732 27.6378L35.7792 29.3271L40.4851 31.0164C41.0609 29.4125 41.3333 27.7428 41.3333 26.0417H36.3333ZM35.7792 29.3271L31.0732 27.6378C30.8754 28.1887 30.6335 28.6064 30.3707 28.9349L34.275 32.0583L38.1793 35.1818C39.1832 33.927 39.944 32.5238 40.4851 31.0164L35.7792 29.3271ZM34.275 32.0583L30.7395 35.5939L40.7145 45.5689L44.25 42.0333L47.7855 38.4978L37.8105 28.5228L34.275 32.0583ZM44.25 42.0333L40.7145 38.4978L38.4978 40.7145L42.0333 44.25L45.5689 47.7855L47.7855 45.5689L44.25 42.0333ZM26.0417 33.1667V38.1667C29.3311 38.1667 32.2894 36.9586 34.6235 34.6262L31.0893 31.0893L27.5551 27.5525C27.1174 27.9898 26.7105 28.1667 26.0417 28.1667V33.1667ZM31.0893 31.0893L34.6235 34.6262C36.9599 32.2917 38.1684 29.3309 38.1667 26.039L33.1667 26.0417L28.1667 26.0443C28.167 26.7128 27.9907 27.1172 27.5551 27.5525L31.0893 31.0893ZM33.1667 26.0417L38.1667 26.039C38.1649 22.7513 36.9581 19.7933 34.6249 17.46L31.0893 20.9956L27.5538 24.5311C27.9882 24.9655 28.1663 25.3716 28.1667 26.0443L33.1667 26.0417ZM31.0893 20.9956L34.6249 17.46C32.2917 15.1269 29.3341 13.9202 26.047 13.9167L26.0417 18.9167L26.0363 23.9167C26.7118 23.9174 27.1193 24.0966 27.5538 24.5311L31.0893 20.9956ZM26.0417 18.9167L26.047 13.9167C22.7513 13.9132 19.7874 15.1238 17.4533 17.4668L20.9956 20.9956L24.5378 24.5244C24.9693 24.0913 25.3695 23.916 26.0363 23.9167L26.0417 18.9167ZM20.9956 20.9956L17.4533 17.4668C15.13 19.7989 13.9219 22.7503 13.9167 26.0337L18.9167 26.0417L23.9167 26.0497C23.9177 25.381 24.0956 24.9683 24.5378 24.5244L20.9956 20.9956ZM18.9167 26.0417L13.9167 26.0337C13.9114 29.3298 15.1251 32.2899 17.4601 34.6249L20.9956 31.0893L24.5311 27.5538C24.0878 27.1105 23.9156 26.7056 23.9167 26.0497L18.9167 26.0417ZM20.9956 31.0893L17.4601 34.6249C19.7951 36.9599 22.7556 38.1737 26.0524 38.1667L26.0417 33.1667L26.031 28.1667C25.3779 28.1681 24.9743 27.997 24.5311 27.5538L20.9956 31.0893Z" fill="#757575" mask="url(#path-2-inside-1_147_88)"/>
</svg>
